<?xml version="1.0" standalone="no"?>
<svg xmlns:xlink="http://www.w3.org/1999/xlink" id="wave" style="transform:rotate(0deg); transition: 0.3s" viewBox="0 0 1440 490" version="1.1" xmlns="http://www.w3.org/2000/svg"><defs><linearGradient id="sw-gradient-0" x1="0" x2="0" y1="1" y2="0"><stop stop-color="rgba(153, 191, 234, 1)" offset="0%"/><stop stop-color="rgba(93, 108, 249, 1)" offset="100%"/></linearGradient></defs><path style="transform:translate(0, 0px); opacity:1" fill="url(#sw-gradient-0)" d="M0,0L360,196L720,392L1080,49L1440,49L1800,441L2160,196L2520,0L2880,98L3240,98L3600,98L3960,294L4320,49L4680,196L5040,294L5400,392L5760,441L6120,49L6480,0L6840,343L7200,343L7560,147L7920,196L8280,343L8640,49L8640,490L8280,490L7920,490L7560,490L7200,490L6840,490L6480,490L6120,490L5760,490L5400,490L5040,490L4680,490L4320,490L3960,490L3600,490L3240,490L2880,490L2520,490L2160,490L1800,490L1440,490L1080,490L720,490L360,490L0,490Z"/><defs><linearGradient id="sw-gradient-1" x1="0" x2="0" y1="1" y2="0"><stop stop-color="rgba(0, 0, 0, 1)" offset="0%"/><stop stop-color="rgba(93, 108, 249, 1)" offset="100%"/></linearGradient></defs><path style="transform:translate(0, 50px); opacity:0.9" fill="url(#sw-gradient-1)" d="M0,294L360,392L720,196L1080,245L1440,98L1800,98L2160,196L2520,196L2880,343L3240,98L3600,196L3960,0L4320,0L4680,147L5040,392L5400,392L5760,49L6120,0L6480,196L6840,441L7200,196L7560,343L7920,441L8280,196L8640,392L8640,490L8280,490L7920,490L7560,490L7200,490L6840,490L6480,490L6120,490L5760,490L5400,490L5040,490L4680,490L4320,490L3960,490L3600,490L3240,490L2880,490L2520,490L2160,490L1800,490L1440,490L1080,490L720,490L360,490L0,490Z"/></svg>